<?xml version="1.0" encoding="UTF-8"?>
<svg version="1.1" xmlns="http://www.w3.org/2000/svg" width="603" height="182">
<path d="M0 0 C3.33003779 2.02697953 5.73371819 4.69251997 8.11328125 7.75390625 C9.44836354 9.45131176 10.88476146 10.93940328 12.4375 12.4375 C12.7778125 11.91800781 13.118125 11.39851562 13.46875 10.86328125 C17.38637258 5.22648919 21.63592338 1.05519856 28.2578125 -1.17578125 C37.35494665 -2.78978892 46.5455869 -2.46209609 54.33203125 2.69140625 C60.30940099 7.30971087 63.24455646 13.04958853 64.4375 20.4375 C64.53482157 23.10349805 64.58440441 25.7432218 64.58276367 28.40893555 C64.58612228 29.19649231 64.5894809 29.98404907 64.59294128 30.79547119 C64.60241059 33.38840324 64.60439189 35.98127051 64.60546875 38.57421875 C64.60868241 40.3783216 64.61204657 42.18242419 64.61555481 43.98652649 C64.62153476 47.76161301 64.6233957 51.53667666 64.62280273 55.31176758 C64.62270078 60.15758252 64.63639208 65.00325203 64.65357494 69.8490324 C64.66466736 73.57126037 64.66672285 77.29345276 64.66619301 81.01569557 C64.66737579 82.80313433 64.67181418 84.59057393 64.67952538 86.37799644 C64.6892765 88.87018594 64.68646754 91.36205384 64.68041992 93.85424805 C64.68603943 94.59661209 64.69165894 95.33897614 64.69744873 96.10383606 C64.66582083 101.20917917 64.66582083 101.20917917 62.4375 103.4375 C58.62295714 103.89170837 54.77597486 103.76154776 50.9375 103.75 C49.33068359 103.77416992 49.33068359 103.77416992 47.69140625 103.79882812 C46.66917969 103.79947266 45.64695312 103.80011719 44.59375 103.80078125 C43.65337891 103.80376221 42.71300781 103.80674316 41.74414062 103.80981445 C40.98294922 103.68695068 40.22175781 103.56408691 39.4375 103.4375 C37.01292594 99.8006389 37.1814164 98.08221495 37.16625977 93.75048828 C37.16103302 93.07533173 37.15580627 92.40017517 37.15042114 91.70455933 C37.1401859 90.23953703 37.13440156 88.77447841 37.13253975 87.30942154 C37.12887638 84.9888945 37.11215062 82.66879497 37.09178162 80.34835815 C37.03636919 73.75136267 37.00570082 67.1543039 36.98120117 60.55712891 C36.9653072 56.52053638 36.93506784 52.48424663 36.89643669 48.44781113 C36.88480136 46.91129653 36.87885647 45.37472774 36.87875557 43.8381691 C36.87856304 41.68622579 36.86026311 39.53511455 36.83813477 37.38330078 C36.83306412 36.15990997 36.82799347 34.93651917 36.82276917 33.67605591 C36.40343937 30.15118782 35.55680952 28.25676477 33.4375 25.4375 C30.23123823 23.83436912 26.92301129 24.09565178 23.4375 24.4375 C20.47459548 25.42513484 19.04100045 26.27771982 17.58314514 29.07936096 C14.87369482 36.43056282 14.99664981 43.71816362 14.99609375 51.46484375 C14.98430301 52.90451895 14.97093467 54.344182 14.95606995 55.78382874 C14.92012046 59.54602154 14.89974466 63.30810647 14.88452148 67.07043457 C14.8595442 73.11589723 14.82012881 79.16112221 14.76262093 85.20636177 C14.74628782 87.31479104 14.74251595 89.42299416 14.73960876 91.53147888 C14.72942215 92.80362747 14.71923553 94.07577606 14.70874023 95.38647461 C14.70446518 96.50960556 14.70019012 97.63273651 14.69578552 98.78990173 C14.4375 101.4375 14.4375 101.4375 12.4375 103.4375 C10.09912109 103.66455078 10.09912109 103.66455078 7.2109375 103.6328125 C6.1796875 103.62636719 5.1484375 103.61992188 4.0859375 103.61328125 C3.00570312 103.59652344 1.92546875 103.57976562 0.8125 103.5625 C-0.27546875 103.55347656 -1.3634375 103.54445313 -2.484375 103.53515625 C-5.17730152 103.51153409 -7.86979255 103.47859556 -10.5625 103.4375 C-12.56395355 100.10438235 -12.79811165 97.61723098 -12.7578125 93.7578125 C-12.75120605 92.61562256 -12.74459961 91.47343262 -12.73779297 90.29663086 C-12.72119629 89.06436768 -12.70459961 87.83210449 -12.6875 86.5625 C-12.67992676 85.28705322 -12.67235352 84.01160645 -12.66455078 82.69750977 C-12.63598816 77.92434625 -12.58985296 73.15147703 -12.54174805 68.378479 C-12.50838524 65.00672484 -12.47919732 61.63505334 -12.46044922 58.26318359 C-12.44554894 55.73869545 -12.42165815 53.21423844 -12.38720703 50.68994141 C-11.81349491 37.68809001 -11.81349491 37.68809001 -16.46044922 26.15991211 C-19.2351358 23.88634488 -20.98490106 23.50905198 -24.5625 23.4375 C-28.11784095 24.69232622 -30.04464124 25.77678365 -32.375 28.75 C-34.54641427 33.66425335 -34.69085193 38.64737485 -34.73608398 43.96191406 C-34.74957382 45.23633362 -34.76306366 46.51075317 -34.77696228 47.8237915 C-34.78202223 48.49682564 -34.78708218 49.16985977 -34.79229546 49.86328888 C-34.80881516 51.9815152 -34.83205062 54.09957188 -34.85719299 56.2177124 C-34.92770959 62.23587521 -34.98830903 68.25410126 -35.03930664 74.27246094 C-35.07104106 77.96234141 -35.11228354 81.65201495 -35.15950203 85.34172821 C-35.17553373 86.74674534 -35.18784991 88.15180988 -35.19640923 89.5568924 C-35.20852144 91.51489184 -35.23369922 93.47279743 -35.25952148 95.43066406 C-35.26982895 96.54507874 -35.28013641 97.65949341 -35.29075623 98.80767822 C-35.5625 101.4375 -35.5625 101.4375 -37.5625 103.4375 C-39.88500977 103.68041992 -39.88500977 103.68041992 -42.75390625 103.66796875 C-43.78064453 103.66603516 -44.80738281 103.66410156 -45.86523438 103.66210938 C-46.94095703 103.64986328 -48.01667969 103.63761719 -49.125 103.625 C-50.20458984 103.62435547 -51.28417969 103.62371094 -52.39648438 103.62304688 C-60.42235402 103.57764598 -60.42235402 103.57764598 -61.5625 102.4375 C-61.66318417 99.30726516 -61.6986416 96.1990508 -61.69189453 93.06835938 C-61.69364685 92.08470901 -61.69539917 91.10105865 -61.69720459 90.08760071 C-61.70162505 86.81879947 -61.69868443 83.55005184 -61.6953125 80.28125 C-61.69598548 78.02062978 -61.69695546 75.76000962 -61.69821167 73.49938965 C-61.69968891 68.75463168 -61.69753326 64.00989251 -61.69287109 59.26513672 C-61.6871738 53.16811376 -61.69045266 47.07113481 -61.69644356 40.97411346 C-61.70004848 36.30401271 -61.6989109 31.63392247 -61.69631577 26.96382141 C-61.6956463 24.71503189 -61.69647558 22.46624143 -61.69879532 20.217453 C-61.70132071 17.08048962 -61.69748285 13.94359859 -61.69189453 10.80664062 C-61.69391876 9.86738235 -61.69594299 8.92812408 -61.69802856 7.96040344 C-61.67676225 1.55176225 -61.67676225 1.55176225 -60.5625 0.4375 C-56.92350825 0.18593731 -53.27166327 0.25227774 -49.625 0.25 C-48.59697266 0.23775391 -47.56894531 0.22550781 -46.50976562 0.21289062 C-45.03733398 0.20999023 -45.03733398 0.20999023 -43.53515625 0.20703125 C-42.63031494 0.20292236 -41.72547363 0.19881348 -40.79321289 0.19458008 C-38.5625 0.4375 -38.5625 0.4375 -36.5625 2.4375 C-36.1484375 4.6015625 -36.1484375 4.6015625 -35.9375 7.0625 C-35.86273438 7.87976562 -35.78796875 8.69703125 -35.7109375 9.5390625 C-35.63746094 10.47878906 -35.63746094 10.47878906 -35.5625 11.4375 C-35.02625 10.550625 -34.49 9.66375 -33.9375 8.75 C-26.72951211 -1.98584112 -11.80671365 -5.32101408 0 0 Z " fill="#211E1E" transform="translate(164.5625,2.5625)"/>
<path d="M0 0 C7.65195003 6.53215246 10.87465903 12.87718653 11.83102417 23.04135132 C11.93507664 26.00395189 11.95163569 28.95364697 11.93359375 31.91796875 C11.95096244 34.12435062 11.96854695 36.33073079 11.98632812 38.53710938 C11.99641601 41.9667459 11.99998946 45.39627694 11.99829102 48.82592773 C12.00186898 52.16941957 12.02922164 55.51211871 12.05859375 58.85546875 C12.05041122 59.87335983 12.0422287 60.89125092 12.03379822 61.93998718 C12.11087343 69.35084819 13.66585259 74.56669074 18.3125 80.375 C19.5625 82.1875 19.5625 82.1875 20.08984375 84.37890625 C19.22998846 88.95843183 15.8521533 91.05874052 12.375 93.9375 C11.70146484 94.52660156 11.02792969 95.11570312 10.33398438 95.72265625 C3.76587881 101.29753609 3.76587881 101.29753609 -0.4375 101.1875 C-2.3515625 100.11328125 -2.3515625 100.11328125 -4.0625 98.5 C-4.65417969 97.94441406 -5.24585937 97.38882813 -5.85546875 96.81640625 C-10.4375 92.09861111 -10.4375 92.09861111 -10.4375 89.1875 C-11.68853516 90.10982422 -11.68853516 90.10982422 -12.96484375 91.05078125 C-24.83221806 99.653742 -34.58585445 102.75121932 -49.4375 101.1875 C-56.58377733 99.66199226 -62.2095149 96.1874258 -66.4375 90.1875 C-71.31213677 81.4073679 -72.12161182 70.9509651 -69.70703125 61.25390625 C-68.77900525 58.76528144 -67.72510046 56.50856926 -66.4375 54.1875 C-66.086875 53.54296875 -65.73625 52.8984375 -65.375 52.234375 C-60.13148298 43.85931309 -51.04848126 39.78884547 -41.70507812 37.62548828 C-33.04260544 35.95231042 -24.20490542 35.11794479 -15.4375 34.1875 C-16.19987443 25.67378816 -16.19987443 25.67378816 -19.375 17.875 C-24.03569972 15.30685934 -28.2413034 15.38514611 -33.4375 16.1875 C-38.63358141 18.45488098 -40.48071295 21.48830919 -42.67578125 26.48046875 C-43.4375 28.1875 -43.4375 28.1875 -44.4375 29.1875 C-47.18299243 29.14883109 -49.88675442 29.0411612 -52.625 28.875 C-53.38103516 28.83955078 -54.13707031 28.80410156 -54.91601562 28.76757812 C-59.40296026 28.506845 -63.20660064 27.84072224 -67.4375 26.1875 C-67.03809325 17.56031422 -64.55734402 10.47274521 -58.4375 4.1875 C-42.10078947 -8.72377122 -18.17596292 -9.58368954 0 0 Z M-39.16796875 57.5859375 C-42.6449302 61.9722581 -42.92072081 66.77542697 -42.4375 72.1875 C-40.8763359 76.24652667 -39.42323434 79.24849411 -35.4375 81.1875 C-30.70001898 81.72237689 -28.45739409 81.69744704 -24.1875 79.5625 C-18.49948832 74.65012628 -16.29633966 69.48763709 -15.4375 62.1875 C-15.29284455 58.18054408 -15.31545373 54.1946857 -15.4375 50.1875 C-24.0721716 49.95655782 -32.82456217 51.31970132 -39.16796875 57.5859375 Z " fill="#211E1E" transform="translate(70.4375,5.8125)"/>
<path d="M0 0 C0.88478027 0.00563965 1.76956055 0.0112793 2.68115234 0.01708984 C8.91995908 0.1333266 14.42052379 0.60441834 20.125 3.3125 C20.98351562 3.70308594 21.84203125 4.09367188 22.7265625 4.49609375 C29.46024455 8.00197836 33.03912131 12.41197423 36.125 19.3125 C37.03760987 22.33366471 37.25870299 25.06332375 37.28271484 28.21362305 C37.29297699 29.1853093 37.30323914 30.15699554 37.31381226 31.15812683 C37.32111359 32.20293716 37.32841492 33.2477475 37.3359375 34.32421875 C37.36401457 36.54883538 37.39267909 38.77344465 37.421875 40.99804688 C37.46304962 44.49568407 37.49994853 47.99318529 37.52636719 51.4909668 C37.55411174 54.87317074 37.5999911 58.25475619 37.6484375 61.63671875 C37.65169037 62.67140793 37.65494324 63.70609711 37.65829468 64.7721405 C37.78904916 72.56578315 38.91273961 79.02571314 43.3125 85.5625 C45.37907609 88.69799476 45.76451994 89.65657769 45.125 93.3125 C43.27158526 95.42308713 41.55145185 97.13333007 39.4375 98.9375 C38.64182617 99.65292969 38.64182617 99.65292969 37.83007812 100.3828125 C31.74873114 105.75529082 31.74873114 105.75529082 28.125 107.3125 C23.76247658 106.41453051 21.61701242 104.01488761 18.8125 100.6875 C18.11511719 99.87023437 17.41773438 99.05296875 16.69921875 98.2109375 C16.17972656 97.58445312 15.66023438 96.95796875 15.125 96.3125 C12.16095372 97.70460264 9.59717943 99.34607647 6.9375 101.25 C-3.31557679 108.02465009 -14.43390199 108.89075584 -26.46875 106.87890625 C-32.52346658 104.94476067 -38.00083866 100.46670814 -41.23046875 95.03125 C-46.1092552 84.46348151 -45.9709325 74.41160634 -42.25 63.4296875 C-37.99367125 53.78039676 -30.44532156 49.03495883 -20.875 45.3125 C-10.90358785 41.85274346 -0.31908601 41.24110597 10.125 40.3125 C9.93072085 31.73438321 9.93072085 31.73438321 6.125 24.3125 C1.64079288 21.32302859 -2.62215428 21.85673839 -7.875 22.3125 C-11.41512358 23.38992891 -12.44462772 24.56803986 -14.27734375 27.73828125 C-15.55241881 30.23545041 -16.74401327 32.74732585 -17.875 35.3125 C-20.7716148 35.19819952 -23.66678316 35.0714576 -26.5625 34.9375 C-27.37912109 34.9065625 -28.19574219 34.875625 -29.03710938 34.84375 C-37.39964064 34.43747318 -37.39964064 34.43747318 -40.875 32.3125 C-42.08561762 29.88073766 -41.91561382 28.52795974 -41.4140625 25.8671875 C-38.49469723 17.3087064 -33.99230845 10.40905312 -26.125 5.6484375 C-17.53817901 1.56969753 -9.43053915 -0.06276267 0 0 Z M-11.875 62.3125 C-15.39757768 66.48397357 -16.78236392 69.84697128 -16.875 75.3125 C-16.03342857 79.44447776 -14.87530003 83.04288843 -12.25 86.375 C-8.38571211 87.9003768 -4.95178632 88.13198914 -0.875 87.3125 C4.58668314 84.59232578 7.46297391 79.93027888 9.48046875 74.32421875 C10.7524682 68.38051224 10.4148825 62.35171872 10.125 56.3125 C2.0497816 56.14007541 -5.26651826 57.55439314 -11.875 62.3125 Z " fill="#211E1E" transform="translate(288.875,-0.3125)"/>
<path d="M0 0 C6.98061388 4.60085915 9.48589085 10.46597839 11.37362671 18.32879639 C12.60788083 25.56281845 12.40711307 32.84542101 12.36328125 40.1640625 C12.36276156 41.89089965 12.36328347 43.6177374 12.36479187 45.34457397 C12.36470279 48.93667604 12.35439551 52.52855063 12.33618164 56.12060547 C12.31332465 60.72972266 12.31298793 65.33851339 12.31969929 69.94767189 C12.32303228 73.50091471 12.31642471 77.05408262 12.30657005 80.60731125 C12.30271899 82.3082172 12.30156945 84.00913147 12.3031559 85.71004105 C12.30352524 88.07459866 12.29094945 90.43872905 12.2746582 92.80322266 C12.27713562 93.50653717 12.27961304 94.20985168 12.28216553 94.93447876 C12.22876537 99.77123463 12.22876537 99.77123463 10 102 C7.67749023 102.24291992 7.67749023 102.24291992 4.80859375 102.23046875 C3.78185547 102.22853516 2.75511719 102.22660156 1.69726562 102.22460938 C0.62154297 102.21236328 -0.45417969 102.20011719 -1.5625 102.1875 C-2.64208984 102.18685547 -3.72167969 102.18621094 -4.83398438 102.18554688 C-12.85985402 102.14014598 -12.85985402 102.14014598 -14 101 C-14.11310912 99.09508838 -14.15683674 97.18602528 -14.17358398 95.27783203 C-14.18707382 94.0521048 -14.20056366 92.82637756 -14.21446228 91.56350708 C-14.21952223 90.90338749 -14.22458218 90.2432679 -14.22979546 89.56314468 C-14.24620923 87.49324911 -14.26945588 85.4235349 -14.29469299 83.35372925 C-14.36539516 77.46638082 -14.42510018 71.57895121 -14.47680664 65.69140625 C-14.50890433 62.09154382 -14.55027248 58.4918783 -14.59700203 54.89217758 C-14.62051396 52.8701736 -14.63368338 50.84805773 -14.64659119 48.82595825 C-14.49130853 36.08133247 -14.49130853 36.08133247 -18.6875 24.375 C-21.93051569 22.4467204 -24.22224497 22 -28 22 C-32.10085614 23.89270283 -33.67115509 25.38766811 -35.8125 29.375 C-37.55652186 34.69885621 -38.12365875 39.66278861 -38.17358398 45.24902344 C-38.18707382 46.46338074 -38.20056366 47.67773804 -38.21446228 48.92889404 C-38.22490067 50.22595276 -38.23533905 51.52301147 -38.24609375 52.859375 C-38.26161057 54.21365139 -38.27782119 55.56791999 -38.29469299 56.92218018 C-38.36518421 62.65359577 -38.42581328 68.38507715 -38.47680664 74.11669922 C-38.50854415 77.63152175 -38.54978646 81.14612717 -38.59700203 84.66077423 C-38.62082459 86.64940619 -38.6337701 88.63815877 -38.64659119 90.62689209 C-38.66323318 91.82864075 -38.67987518 93.0303894 -38.69702148 94.26855469 C-38.70732895 95.32967468 -38.71763641 96.39079468 -38.72825623 97.48406982 C-39 100 -39 100 -41 102 C-43.21484375 102.24291992 -43.21484375 102.24291992 -45.9375 102.23046875 C-47.40316406 102.22756836 -47.40316406 102.22756836 -48.8984375 102.22460938 C-49.92195312 102.21236328 -50.94546875 102.20011719 -52 102.1875 C-53.02351562 102.18685547 -54.04703125 102.18621094 -55.1015625 102.18554688 C-62.71935497 102.14032251 -62.71935497 102.14032251 -65 101 C-65.0231209 87.84850976 -65.04091379 74.69702431 -65.05181217 61.54551792 C-65.05704156 55.43943631 -65.0641402 49.33336856 -65.07543945 43.22729492 C-65.08626637 37.33994853 -65.09227642 31.45261551 -65.09487724 25.56525993 C-65.09673185 23.31367723 -65.10035313 21.06209531 -65.10573006 18.81051826 C-65.11293789 15.66866573 -65.11399105 12.52686917 -65.11352539 9.38500977 C-65.11712067 8.44418045 -65.12071594 7.50335114 -65.12442017 6.53401184 C-65.11405216 0.11405216 -65.11405216 0.11405216 -64 -1 C-60.36100825 -1.25156269 -56.70916327 -1.18522226 -53.0625 -1.1875 C-52.03447266 -1.19974609 -51.00644531 -1.21199219 -49.94726562 -1.22460938 C-48.47483398 -1.22750977 -48.47483398 -1.22750977 -46.97265625 -1.23046875 C-46.06781494 -1.23457764 -45.16297363 -1.23868652 -44.23071289 -1.24291992 C-42 -1 -42 -1 -40 1 C-39.5859375 3.3828125 -39.5859375 3.3828125 -39.375 6.125 C-39.30023437 7.03507813 -39.22546875 7.94515625 -39.1484375 8.8828125 C-39.09945312 9.58148438 -39.05046875 10.28015625 -39 11 C-38.484375 10.13375 -37.96875 9.2675 -37.4375 8.375 C-29.04985428 -4.17672516 -13.17479145 -6.83137334 0 0 Z " fill="#211E1E" transform="translate(591,4)"/>
<path d="M0 0 C1.36125 1.0828125 1.36125 1.0828125 2.75 2.1875 C3.28882813 2.59871094 3.82765625 3.00992187 4.3828125 3.43359375 C12.6705777 10.58783052 18.50890172 23.39625567 19.75 34.1875 C19.91048828 35.28771484 19.91048828 35.28771484 20.07421875 36.41015625 C22.32538814 53.45472449 19.81429196 70.76581326 9.9375 85.125 C3.31448095 93.65802829 -5.45428526 99.49563426 -16.25 101.1875 C-28.71314378 102.03688857 -39.23111189 99.94352959 -49.25 92.1875 C-61.09119747 80.55367902 -65.46169634 63.9776136 -65.625 47.75 C-65.47473159 30.92754671 -61.39788393 15.71036348 -49.55859375 3.43359375 C-35.8863685 -9.22352429 -15.5003703 -8.64443728 0 0 Z M-31.25 18.1875 C-36.47271514 26.25295882 -36.49355618 34.09510864 -36.54516602 43.44702148 C-36.55659457 44.88299485 -36.57689885 46.31892887 -36.60668945 47.75463867 C-36.81204258 57.67239171 -36.86892809 68.62889105 -30.90820312 77.09277344 C-28.36435272 79.5268295 -26.19019857 80.19711094 -22.75 80.75 C-18.43908277 80.05717402 -16.48812439 79.13779111 -13.25 76.1875 C-4.68181417 61.80713717 -6.57644515 39.55997967 -10.203125 23.82421875 C-11.7958921 19.8125852 -13.86605477 16.93270128 -17.6875 14.875 C-23.56289771 13.29867378 -26.54775875 14.18559256 -31.25 18.1875 Z " fill="#211E1E" transform="translate(492.25,6.8125)"/>
<path d="M0 0 C4.76673079 -0.30933368 7.52599184 0.43803265 11.68359375 2.74609375 C12.76390869 3.33181152 13.84422363 3.9175293 14.95727539 4.52099609 C16.10574951 5.15344238 17.25422363 5.78588867 18.4375 6.4375 C53.07748631 25.01886944 91.95115906 35.92015852 131 40 C132.30505493 40.1403064 132.30505493 40.1403064 133.63647461 40.28344727 C183.3917012 45.0615661 235.77712441 37.73068611 281.72900391 17.81738281 C285.02561933 16.63085643 287.62981901 17.2870771 291 18 C291.33 18.33 291.66 18.66 292 19 C291.9609375 22.26171875 291.9609375 22.26171875 291 26 C288.84078507 28.00676316 287.10478792 29.32840837 284.625 30.8125 C283.95871582 31.23063965 283.29243164 31.6487793 282.60595703 32.07958984 C280.42405419 33.42388303 278.2193104 34.71848707 276 36 C274.89495117 36.64122803 274.89495117 36.64122803 273.76757812 37.29541016 C249.44733422 51.19043242 222.52899186 59.36256191 195 64 C194.32630371 64.11859375 193.65260742 64.2371875 192.95849609 64.359375 C133.37312205 74.40235753 69.85423769 57.15997057 21.12548828 22.55371094 C13.73734697 17.19406048 6.46206351 11.46206351 0 5 C-0.125 2.375 -0.125 2.375 0 0 Z " fill="#FF9900" transform="translate(85,116)"/>
<path d="M0 0 C1.25139771 -0.00630432 2.50279541 -0.01260864 3.79211426 -0.019104 C5.15893698 -0.01552421 6.52575841 -0.01142224 7.89257812 -0.00683594 C9.29357979 -0.00818322 10.69458099 -0.01012428 12.09558105 -0.01263428 C15.03105116 -0.01558257 17.96639952 -0.01129745 20.90185547 -0.00195312 C24.66477907 0.00944135 28.42741737 0.00288029 32.19033051 -0.00909805 C35.08309072 -0.01632466 37.97578328 -0.01402506 40.86854553 -0.00884247 C42.25602756 -0.00750819 43.64351574 -0.00914596 45.0309906 -0.01380157 C46.96987796 -0.01887964 48.90878685 -0.00976768 50.84765625 0 C51.95113403 0.00159119 53.05461182 0.00318237 54.19152832 0.00482178 C56.92382812 0.25878906 56.92382812 0.25878906 59.92382812 2.25878906 C61.22619275 10.17929227 61.38651766 18.22413786 56.79882812 25.07128906 C55.65004537 26.55437368 54.49852771 28.03575044 53.31494141 29.49121094 C50.44540907 33.13729976 47.87663177 37.00796113 45.23632812 40.82128906 C44.03275146 42.53672979 42.82831339 44.25156645 41.62304688 45.96582031 C35.98390725 54.0133893 30.4532558 62.13561779 24.92382812 70.25878906 C25.76042969 70.21238281 26.59703125 70.16597656 27.45898438 70.11816406 C39.12833609 69.7563237 51.16368174 71.28725593 60.92382812 78.25878906 C62.11602167 80.64317615 62.05298835 82.13534908 62.05664062 84.79394531 C62.05792969 85.68533203 62.05921875 86.57671875 62.06054688 87.49511719 C62.05667969 88.42775391 62.0528125 89.36039062 62.04882812 90.32128906 C62.05269531 91.25779297 62.0565625 92.19429688 62.06054688 93.15917969 C62.05925781 94.04927734 62.05796875 94.939375 62.05664062 95.85644531 C62.0555127 96.67636963 62.05438477 97.49629395 62.05322266 98.34106445 C61.92382812 100.25878906 61.92382812 100.25878906 60.92382812 101.25878906 C56.09644607 100.99060117 52.17878569 100.0710407 47.67382812 98.32128906 C31.6550286 92.23680029 14.10205213 92.82824742 -1.70117188 99.44628906 C-2.4359375 99.79046875 -3.17070312 100.13464844 -3.92773438 100.48925781 C-6.44270235 101.39007361 -8.42349131 101.4624932 -11.07617188 101.25878906 C-14.06962617 98.26533477 -12.93943656 90.06122752 -13.00830078 86.0859375 C-12.70684196 74.71044719 -8.00167099 68.16411 -0.97119141 59.62255859 C2.28599412 55.55967914 5.16798667 51.23872967 8.11132812 46.94628906 C13.65961615 39.01048121 19.27796021 31.12536017 24.92382812 23.25878906 C23.96492676 23.23896973 23.00602539 23.21915039 22.01806641 23.19873047 C18.4657126 23.12274761 14.91377237 23.03401976 11.36181641 22.94140625 C9.82348791 22.90308606 8.28506888 22.8682385 6.74658203 22.83691406 C4.53710536 22.79132847 2.32825364 22.73332567 0.11914062 22.67285156 C-0.57049774 22.66130035 -1.26013611 22.64974915 -1.97067261 22.6378479 C-6.84842846 22.48653248 -6.84842846 22.48653248 -9.07617188 20.25878906 C-9.51910729 17.2791133 -9.40031615 14.26767041 -9.38867188 11.25878906 C-9.40478516 10.42605469 -9.42089844 9.59332031 -9.4375 8.73535156 C-9.43814453 7.93871094 -9.43878906 7.14207031 -9.43945312 6.32128906 C-9.44392456 5.22494141 -9.44392456 5.22494141 -9.44848633 4.10644531 C-8.50225897 -0.58932429 -3.80341167 0.00548442 0 0 Z " fill="#211E1E" transform="translate(357.076171875,1.7412109375)"/>
<path d="M0 0 C3.40742722 6.81485444 0.98805092 17.46749052 -0.828125 24.53515625 C-4.58242945 35.63538308 -10.70168524 49.61268645 -21 56 C-22.32 56 -23.64 56 -25 56 C-25.50380381 50.23424529 -23.70663339 45.87864618 -21.625 40.625 C-17.12474906 29.17025492 -17.12474906 29.17025492 -15.875 17 C-15.89304687 16.05125 -15.91109375 15.1025 -15.9296875 14.125 C-15.95289063 13.42375 -15.97609375 12.7225 -16 12 C-19.5723324 11.18455429 -22.873818 10.8715585 -26.53515625 10.8671875 C-28.12166992 10.86525391 -28.12166992 10.86525391 -29.74023438 10.86328125 C-30.83658203 10.86714844 -31.93292969 10.87101562 -33.0625 10.875 C-34.13177734 10.87113281 -35.20105469 10.86726563 -36.30273438 10.86328125 C-42.79959219 10.87113244 -49.17284637 11.1979473 -55.63452148 11.88330078 C-58 12 -58 12 -60 11 C-59.62658073 8.48889071 -59.25052686 7.24866189 -57.42578125 5.4375 C-43.30473329 -4.16794482 -15.54647995 -9.53988542 0 0 Z " fill="#FF9900" transform="translate(404,113)"/>
</svg>
